HIERARCHY
ROOT Hips
{
	OFFSET 0.000000 0.000000 0.000000 
	CHANNELS 6 Xposition Yposition Zposition Zrotation Yrotation Xrotation
	JOINT LeftUpLeg
	{
		OFFSET 1.363060 -1.794630 0.839290 
		CHANNELS 3 Zrotation Yrotation Xrotation
		JOINT LeftLeg
		{
			OFFSET 2.448110 -6.726130 0.000000 
			CHANNELS 3 Zrotation Yrotation Xrotation
			JOINT LeftFoot
			{
				OFFSET 2.562200 -7.039590 0.000000 
				CHANNELS 3 Zrotation Yrotation Xrotation
				JOINT LeftToeBase
				{
					OFFSET 0.157640 -0.433110 2.322550 
					CHANNELS 3 Zrotation Yrotation Xrotation
					End Site
					{
						OFFSET 0.000000 0.000000 0.000000 
					}
				}
			}
		}
	}
	JOINT RightUpLeg
	{
		OFFSET -1.305520 -1.794630 0.839290 
		CHANNELS 3 Zrotation Yrotation Xrotation
		JOINT RightLeg
		{
			OFFSET -2.542530 -6.985550 0.000000 
			CHANNELS 3 Zrotation Yrotation Xrotation
			JOINT RightFoot
			{
				OFFSET -2.568260 -7.056230 0.000000 
				CHANNELS 3 Zrotation Yrotation Xrotation
				JOINT RightToeBase
				{
					OFFSET -0.164730 -0.452590 2.363150 
					CHANNELS 3 Zrotation Yrotation Xrotation
					End Site
					{
						OFFSET 0.000000 0.000000 0.000000 
					}
				}
			}
		}
	}
	JOINT Spine
	{
		OFFSET 0.028270 2.035590 -0.193380 
		CHANNELS 3 Zrotation Yrotation Xrotation
		JOINT Spine1
		{
			OFFSET 0.056720 2.048850 -0.042750 
			CHANNELS 3 Zrotation Yrotation Xrotation
			JOINT Neck1
			{
				OFFSET -0.054170 1.746240 0.172020 
				CHANNELS 3 Zrotation Yrotation Xrotation
				JOINT Head
				{
					OFFSET 0.104070 1.761360 -0.123970 
					CHANNELS 3 Zrotation Yrotation Xrotation
					End Site
					{
						OFFSET 0.000000 0.000000 0.000000 
					}
				}
			}
			JOINT LeftArm
			{
				OFFSET 3.362410 1.200890 -0.311210 
				CHANNELS 3 Zrotation Yrotation Xrotation
				JOINT LeftForeArm
				{
					OFFSET 4.983000 -0.000000 -0.000000 
					CHANNELS 3 Zrotation Yrotation Xrotation
					JOINT LeftHand
					{
						OFFSET 3.483560 -0.000000 -0.000000 
						CHANNELS 3 Zrotation Yrotation Xrotation
						JOINT LeftHandIndex1
						{
							OFFSET 0.715260 -0.000000 -0.000000 
							CHANNELS 3 Zrotation Yrotation Xrotation
							End Site
							{
								OFFSET 0.000000 0.000000 0.000000 
							}
						}
					}
				}
			}
			JOINT RightArm
			{
				OFFSET -3.136600 1.374050 -0.404650 
				CHANNELS 3 Zrotation Yrotation Xrotation
				JOINT RightForeArm
				{
					OFFSET -5.241900 -0.000000 -0.000000 
					CHANNELS 3 Zrotation Yrotation Xrotation
					JOINT RightHand
					{
						OFFSET -3.444170 -0.000000 -0.000000 
						CHANNELS 3 Zrotation Yrotation Xrotation
						JOINT RightHandIndex1
						{
							OFFSET -0.622530 -0.000000 -0.000000 
							CHANNELS 3 Zrotation Yrotation Xrotation
							End Site
							{
								OFFSET 0.000000 0.000000 0.000000 
							}
						}
					}
				}
			}
		}
	}
}
MOTION
Frames: 6
Frame Time: 0.041667
11.414352 16.058347 4.475844 -156.572321 -58.977774 163.488617 -24.531409 -4.997643 -30.692795 8.047627 19.213972 59.504021 3.287626 -2.338898 -23.210511 0.642600 5.128400 14.275300 25.224535 22.512313 -21.624491 -4.672711 -17.096790 50.550661 -0.021091 -8.368864 -22.018961 -3.294000 11.156400 -32.809200 17.544546 -4.216147 7.562449 -4.400337 -2.244402 -18.935389 3.829992 10.928708 -10.500688 -1.586900 3.964300 -1.945700 -83.036112 -8.312618 82.563890 46.739616 -43.744606 -23.532172 -0.012944 0.648461 -8.006000 -7.125000 0.000000 0.000000 93.311046 -28.063239 -25.534805 -18.443870 20.710747 -4.690977 0.867826 -1.193308 36.748435 7.125000 0.000000 0.000000 
11.486102 15.787431 4.324589 -155.213404 -59.589854 162.495407 -23.707230 -6.900514 -32.753303 9.665594 20.200883 64.097391 3.404188 -2.583458 -23.975812 0.539700 4.707000 13.074800 26.124949 23.172827 -24.217968 -5.932448 -18.333407 54.749450 -0.119661 -8.653586 -23.011633 -2.759300 10.294800 -29.936700 17.660618 -4.365621 7.924833 -4.419413 -2.296405 -19.118336 3.247422 11.848879 -11.657828 -1.828400 4.284200 -2.243100 -83.569140 -6.947733 78.632472 44.871743 -42.719001 -21.804793 0.067375 0.670899 -7.611034 -7.125000 0.000000 0.000000 95.445840 -27.150805 -27.025464 -17.744687 20.049719 -4.440292 0.813241 -1.177628 39.304269 7.125000 0.000000 0.000000 
11.556464 15.529823 4.190347 -153.826410 -60.120037 161.261125 -22.816670 -8.675363 -34.536167 11.204738 21.013504 68.402016 3.430612 -2.468507 -24.696615 0.310000 3.579400 9.896200 27.200568 24.260327 -26.265324 -7.172896 -19.407904 58.758420 0.076845 -10.151262 -24.066937 -2.533800 9.899100 -28.650600 17.578407 -4.454302 8.490343 -4.520675 -2.328984 -19.423712 2.106939 12.684327 -13.194960 -2.349400 4.526800 -2.683000 -84.020317 -5.769224 74.887555 43.175096 -41.714595 -20.267488 0.152343 0.688842 -6.815526 -7.125000 0.000000 0.000000 97.274692 -26.243071 -27.284707 -17.295991 19.645779 -4.255460 0.772848 -1.150109 41.746826 7.125000 0.000000 0.000000 
11.612244 15.380536 4.083531 -152.827190 -60.594599 160.124754 -22.029323 -10.153302 -35.619952 12.432624 21.544628 71.743576 3.492956 -2.588249 -25.175493 0.196500 2.854900 7.874900 28.010463 23.809238 -27.778319 -8.223843 -20.099019 61.931886 -0.360832 -9.400291 -25.447010 -2.092400 9.056000 -25.970700 17.433657 -4.517123 9.187719 -4.513001 -2.308016 -19.856449 1.350925 13.305941 -14.658143 -2.712600 4.672800 -3.149000 -84.552738 -4.760715 71.082889 41.382655 -40.570953 -18.687242 0.235109 0.704901 -5.436150 -7.125000 0.000000 0.000000 98.766185 -25.420343 -26.540278 -17.169476 19.602699 -4.166159 0.734781 -1.118104 44.256301 7.125000 0.000000 0.000000 
11.652286 15.289459 3.978798 -152.452245 -60.755995 159.463536 -21.432926 -10.915599 -36.264313 13.283206 21.851794 74.096976 3.426192 -2.222636 -25.462065 0.044100 1.355500 3.727500 28.742745 23.563888 -28.480260 -8.976016 -20.501678 64.125534 -0.839118 -8.515226 -26.832040 -1.686200 8.179300 -23.260200 17.235473 -4.526048 10.072580 -4.381605 -2.206840 -20.146654 1.089561 13.717997 -15.816656 -2.843800 4.748700 -3.537600 -85.058303 -3.962425 67.195176 39.527079 -39.281720 -17.089078 0.313225 0.722575 -3.901224 -7.125000 0.000000 0.000000 99.641426 -24.561790 -24.735109 -17.050622 19.503434 -4.082082 0.708022 -1.098006 46.799740 7.125000 0.000000 0.000000 
11.682838 15.249302 3.880778 -152.713017 -60.839165 159.490476 -21.147561 -11.169003 -36.669721 13.793218 22.016775 75.580072 3.246355 -1.486193 -25.527004 0.008400 -0.590200 -1.621700 29.207539 23.714935 -28.809146 -9.442930 -20.751078 65.520535 -0.900789 -8.874712 -27.631275 -1.612300 8.006900 -22.735200 17.074680 -4.403830 10.763237 -4.129559 -2.019259 -20.315666 0.944439 13.904708 -16.688766 -2.910100 4.756600 -3.859400 -85.634953 -3.390043 63.606025 37.614917 -37.848045 -15.525139 0.401249 0.742576 -2.495215 -7.125000 0.000000 0.000000 99.839591 -23.756728 -21.461641 -17.238437 19.760896 -4.139357 0.734375 -1.035525 45.042731 7.125000 0.000000 0.000000 
